<?xml version="1.0" standalone="no"?>
<!DOCTYPE svg PUBLIC "-//W3C//DTD SVG 20010904//EN"
 "http://www.w3.org/TR/2001/REC-SVG-20010904/DTD/svg10.dtd">
<svg version="1.0" xmlns="http://www.w3.org/2000/svg"
 width="348.000000pt" height="348.000000pt" viewBox="0 0 348.000000 348.000000"
 preserveAspectRatio="xMidYMid meet">
<metadata>
Created by potrace 1.14, written by Peter Selinger 2001-2017
</metadata>
<g transform="translate(0.000000,348.000000) scale(0.100000,-0.100000)"
fill="#000000" stroke="none">
<path d="M0 1740 l0 -1740 1740 0 1740 0 0 1740 0 1740 -1740 0 -1740 0 0
-1740z m870 1085 c-195 -195 -358 -355 -362 -355 -33 0 46 89 334 377 260 260
338 333 358 333 20 0 -39 -64 -330 -355z m65 -65 c-342 -342 -421 -416 -423
-399 -5 32 781 819 818 819 20 0 -52 -77 -395 -420z m70 -70 c-269 -270 -493
-490 -496 -490 -36 0 50 94 467 511 368 369 474 469 494 469 20 0 -66 -91
-465 -490z m65 -65 c-305 -305 -558 -555 -562 -555 -35 0 66 109 533 576 420
421 539 534 559 534 20 0 -79 -104 -530 -555z m65 -65 c-341 -341 -623 -620
-627 -620 -32 0 85 126 601 643 470 471 601 597 621 597 20 0 -92 -117 -595
-620z m65 -65 c-377 -377 -688 -685 -692 -685 -33 0 94 134 666 708 522 523
666 662 686 662 20 0 -105 -130 -660 -685z m810 682 c0 -1 -337 -339 -749
-751 -598 -598 -749 -744 -755 -730 -10 25 1447 1484 1481 1484 13 0 23 -1 23
-3z m-682 -817 c-452 -451 -823 -820 -825 -820 -2 0 0 12 3 28 5 18 256 277
798 819 650 651 796 793 818 793 22 0 -107 -133 -794 -820z m72 -65 c-487
-487 -889 -885 -893 -885 -5 0 -5 10 -2 23 4 12 395 410 868 885 683 683 867
862 887 862 20 0 -145 -170 -860 -885z m990 866 c0 -8 -1873 -1881 -1881
-1881 -38 0 91 135 926 970 833 833 955 949 955 911z m-1585 -271 c-153 -153
-281 -278 -283 -276 -15 16 69 113 260 302 200 200 262 252 293 254 5 0 -116
-126 -270 -280z m1675 231 c0 -8 -1963 -1971 -1972 -1971 -34 0 133 174 975
1017 871 872 997 993 997 954z m-947 -1083 c-560 -560 -1021 -1018 -1025
-1018 -34 0 138 179 1010 1052 804 805 1009 1005 1020 996 11 -9 -190 -215
-1005 -1030z m1074 956 c2 -5 -469 -482 -1047 -1059 -846 -846 -1050 -1045
-1050 -1025 0 20 215 240 1037 1062 571 571 1042 1037 1047 1035 6 -2 11 -7
13 -13z m67 -63 c6 -9 -2111 -2131 -2126 -2131 -5 0 -8 7 -6 16 3 16 2106
2124 2119 2124 4 0 10 -4 13 -9z m-987 -1139 c-849 -848 -1069 -1064 -1083
-1058 -14 6 193 218 1051 1076 855 855 1072 1067 1083 1058 11 -9 -199 -224
-1051 -1076z m1120 1002 c2 -5 -476 -488 -1062 -1074 -851 -851 -1067 -1062
-1077 -1052 -10 10 201 226 1052 1077 586 586 1069 1064 1074 1062 6 -2 11 -7
13 -13z m-993 -1135 c-854 -854 -1071 -1066 -1082 -1057 -11 9 200 225 1054
1079 854 854 1071 1066 1082 1057 11 -9 -200 -225 -1054 -1079z m57 -73 c-848
-848 -1063 -1058 -1073 -1048 -10 10 201 226 1052 1077 854 854 1066 1061
1073 1048 8 -12 -204 -229 -1052 -1077z m1089 976 c0 -9 -453 -471 -1045
-1062 -825 -825 -1045 -1040 -1051 -1026 -5 13 219 243 1037 1061 574 574
1047 1044 1052 1045 4 0 7 -8 7 -18z m0 -134 c0 -17 -267 -290 -1002 -1025
-552 -552 -1008 -1003 -1015 -1003 -6 0 -15 5 -18 11 -6 9 2011 2038 2028
2039 4 0 7 -10 7 -22z m-968 -1121 c-772 -772 -974 -969 -988 -963 -14 6 176
201 966 992 796 795 986 980 988 963 3 -18 -192 -218 -966 -992z m46 -84
c-521 -521 -931 -923 -940 -923 -10 0 -18 3 -18 7 0 5 422 430 938 946 757
757 938 933 940 916 3 -18 -183 -209 -920 -946z m60 -70 c-487 -487 -871 -863
-880 -863 -10 0 -18 3 -18 7 0 5 395 403 878 886 709 709 878 873 880 856 3
-18 -171 -197 -860 -886z m65 -65 c-702 -702 -833 -826 -833 -791 0 5 366 374
813 821 657 657 813 808 815 791 3 -18 -158 -184 -795 -821z m65 -65 c-645
-645 -768 -761 -768 -726 0 5 336 344 748 756 605 605 748 743 750 726 3 -18
-146 -171 -730 -756z m75 -64 c-580 -581 -690 -685 -708 -667 -2 2 303 311
678 686 545 545 683 678 685 661 3 -17 -139 -164 -655 -680z m60 -71 c-472
-472 -603 -598 -623 -598 -20 0 92 117 595 620 503 503 621 616 623 599 3 -18
-119 -145 -595 -621z m65 -65 c-420 -420 -538 -533 -558 -533 -20 0 79 104
530 555 450 451 556 551 558 534 3 -18 -106 -132 -530 -556z m65 -65 c-409
-409 -503 -495 -503 -461 0 5 217 225 483 491 392 392 483 478 485 461 3 -18
-93 -119 -465 -491z m65 -65 c-351 -352 -438 -430 -438 -396 0 5 188 196 418
426 340 340 418 413 420 396 3 -18 -81 -106 -400 -426z m402 287 c0 -27 -663
-690 -690 -690 -11 0 -20 2 -20 5 0 6 700 705 706 705 2 0 4 -9 4 -20z m-36
-172 c-25 -50 -431 -452 -481 -477 -24 -12 -43 -20 -43 -18 0 8 535 541 538
535 2 -4 -4 -22 -14 -40z"/>
</g>
</svg>
